<svg width="40" height="40" viewBox="0 0 40 40" fill="none" xmlns="http://www.w3.org/2000/svg">
<rect width="40" height="40" rx="20" fill="#98BEFA"/>
<path d="M22.25 12.5V20C22.25 20.825 21.575 21.5 20.75 21.5H12.5V16.715C13.0475 17.3675 13.8875 17.7725 14.8175 17.75C15.575 17.735 16.2575 17.4425 16.7675 16.955C17 16.76 17.195 16.5125 17.345 16.2425C17.615 15.785 17.765 15.245 17.75 14.6825C17.7275 13.805 17.3375 13.0325 16.73 12.5H22.25Z" stroke="#232323" stroke-width="1.125" stroke-linecap="round" stroke-linejoin="round"/>
<path d="M27.5 21.5V23.75C27.5 24.995 26.495 26 25.25 26H24.5C24.5 25.175 23.825 24.5 23 24.5C22.175 24.5 21.5 25.175 21.5 26H18.5C18.5 25.175 17.825 24.5 17 24.5C16.175 24.5 15.5 25.175 15.5 26H14.75C13.505 26 12.5 24.995 12.5 23.75V21.5H20.75C21.575 21.5 22.25 20.825 22.25 20V14.75H23.63C24.17 14.75 24.665 15.0425 24.935 15.5075L26.2175 17.75H25.25C24.8375 17.75 24.5 18.0875 24.5 18.5V20.75C24.5 21.1625 24.8375 21.5 25.25 21.5H27.5Z" stroke="#232323" stroke-width="1.125" stroke-linecap="round" stroke-linejoin="round"/>
<path d="M17 27.5C17.8284 27.5 18.5 26.8284 18.5 26C18.5 25.1716 17.8284 24.5 17 24.5C16.1716 24.5 15.5 25.1716 15.5 26C15.5 26.8284 16.1716 27.5 17 27.5Z" stroke="#232323" stroke-width="1.125" stroke-linecap="round" stroke-linejoin="round"/>
<path d="M23 27.5C23.8284 27.5 24.5 26.8284 24.5 26C24.5 25.1716 23.8284 24.5 23 24.5C22.1716 24.5 21.5 25.1716 21.5 26C21.5 26.8284 22.1716 27.5 23 27.5Z" stroke="#232323" stroke-width="1.125" stroke-linecap="round" stroke-linejoin="round"/>
<path d="M27.5 20V21.5H25.25C24.8375 21.5 24.5 21.1625 24.5 20.75V18.5C24.5 18.0875 24.8375 17.75 25.25 17.75H26.2175L27.5 20Z" stroke="#232323" stroke-width="1.125" stroke-linecap="round" stroke-linejoin="round"/>
<path d="M17.75 14.75C17.75 15.65 17.3525 16.4525 16.73 17C16.1975 17.465 15.5075 17.75 14.75 17.75C13.0925 17.75 11.75 16.4075 11.75 14.75C11.75 13.805 12.185 12.9575 12.875 12.41C13.3925 11.9975 14.045 11.75 14.75 11.75C16.4075 11.75 17.75 13.0925 17.75 14.75Z" stroke="#232323" stroke-width="1.125" stroke-miterlimit="10" stroke-linecap="round" stroke-linejoin="round"/>
<path d="M14.9375 13.8125V14.9375L14 15.5" stroke="#232323" stroke-width="1.125" stroke-miterlimit="10" stroke-linecap="round" stroke-linejoin="round"/>
</svg>
